<svg width="53" height="53" viewBox="0 0 53 53" fill="none" xmlns="http://www.w3.org/2000/svg">
<g clip-path="url(#clip0_4_2)">
<path d="M37.1557 0H15.9239C11.7006 0 7.65031 1.67769 4.664 4.664C1.67769 7.65031 0 11.7006 0 15.9239L0 37.1557C0 41.379 1.67769 45.4293 4.664 48.4156C7.65031 51.4019 11.7006 53.0796 15.9239 53.0796H37.1557C41.379 53.0796 45.4293 51.4019 48.4156 48.4156C51.4019 45.4293 53.0796 41.379 53.0796 37.1557V15.9239C53.0796 11.7006 51.4019 7.65031 48.4156 4.664C45.4293 1.67769 41.379 0 37.1557 0ZM47.7717 37.1557C47.7717 39.9713 46.6532 42.6715 44.6623 44.6623C42.6715 46.6532 39.9713 47.7717 37.1557 47.7717H15.9239C14.5238 47.7931 13.1338 47.5332 11.8361 47.0073C10.5384 46.4814 9.35952 45.7003 8.36942 44.7102C7.37933 43.7201 6.59817 42.5412 6.07228 41.2436C5.54639 39.9459 5.28647 38.5558 5.30796 37.1557V15.9239C5.28278 14.5229 5.54016 13.1311 6.06474 11.8317C6.58933 10.5324 7.37035 9.35204 8.3612 8.3612C9.35204 7.37035 10.5324 6.58933 11.8317 6.06474C13.1311 5.54016 14.5229 5.28278 15.9239 5.30796H37.1557C38.5558 5.28647 39.9459 5.54639 41.2436 6.07228C42.5412 6.59817 43.7201 7.37933 44.7102 8.36942C45.7003 9.35952 46.4814 10.5384 47.0073 11.8361C47.5332 13.1338 47.7931 14.5238 47.7717 15.9239V37.1557Z" fill="url(#paint0_linear_4_2)"/>
<path d="M26.5398 12.7922C23.8249 12.7817 21.168 13.5768 18.9051 15.0769C16.6423 16.5771 14.8754 18.7147 13.828 21.2194C12.7805 23.7242 12.4997 26.4833 13.021 29.1477C13.5422 31.8121 14.8422 34.2619 16.7564 36.1872C18.6705 38.1125 21.1128 39.4267 23.7741 39.9634C26.4354 40.5002 29.1961 40.2353 31.7069 39.2025C34.2176 38.1696 36.3655 36.4151 37.8788 34.1611C39.392 31.907 40.2025 29.2547 40.2078 26.5398C40.2149 22.9053 38.7797 19.4165 36.2172 16.8391C33.6547 14.2617 30.1743 12.8062 26.5398 12.7922ZM26.5398 34.8733C24.8766 34.8838 23.2479 34.3995 21.8606 33.482C20.4733 32.5646 19.3902 31.2553 18.7489 29.7207C18.1075 28.1861 17.937 26.4955 18.2589 24.8637C18.5808 23.232 19.3806 21.7328 20.5567 20.5567C21.7328 19.3806 23.232 18.5808 24.8637 18.2589C26.4955 17.937 28.1861 18.1075 29.7207 18.7489C31.2553 19.3902 32.5646 20.4733 33.4821 21.8606C34.3995 23.2479 34.8838 24.8766 34.8733 26.5398C34.8663 28.7478 33.9861 30.8634 32.4248 32.4248C30.8634 33.9861 28.7478 34.8663 26.5398 34.8733Z" fill="url(#paint1_linear_4_2)"/>
<path d="M40.2344 16.1893C42.0519 16.1893 43.5253 14.7159 43.5253 12.8983C43.5253 11.0808 42.0519 9.60741 40.2344 9.60741C38.4168 9.60741 36.9434 11.0808 36.9434 12.8983C36.9434 14.7159 38.4168 16.1893 40.2344 16.1893Z" fill="url(#paint2_linear_4_2)"/>
</g>
<defs>
<linearGradient id="paint0_linear_4_2" x1="25.668" y1="52.6391" x2="25.668" y2="0.169058" gradientUnits="userSpaceOnUse">
<stop stop-color="#E09B3D"/>
<stop offset="0.3" stop-color="#C74C4D"/>
<stop offset="0.6" stop-color="#C21975"/>
<stop offset="1" stop-color="#7024C4"/>
</linearGradient>
<linearGradient id="paint1_linear_4_2" x1="26.06" y1="52.7094" x2="26.06" y2="0.345546" gradientUnits="userSpaceOnUse">
<stop stop-color="#E09B3D"/>
<stop offset="0.3" stop-color="#C74C4D"/>
<stop offset="0.6" stop-color="#C21975"/>
<stop offset="1" stop-color="#7024C4"/>
</linearGradient>
<linearGradient id="paint2_linear_4_2" x1="40.582" y1="53.0637" x2="40.582" y2="0.752134" gradientUnits="userSpaceOnUse">
<stop stop-color="#E09B3D"/>
<stop offset="0.3" stop-color="#C74C4D"/>
<stop offset="0.6" stop-color="#C21975"/>
<stop offset="1" stop-color="#7024C4"/>
</linearGradient>
<clipPath id="clip0_4_2">
<rect width="53" height="53" fill="white"/>
</clipPath>
</defs>
</svg>
